<svg xmlns="http://www.w3.org/2000/svg" aria-hidden="true" style="position:absolute;width:0;height:0;overflow:hidden"><defs><symbol id="icon-telegram" viewBox="0 0 28 28"><path d="m18.578 20.422 2.297-10.828c.203-.953-.344-1.328-.969-1.094l-13.5 5.203c-.922.359-.906.875-.156 1.109l3.453 1.078 8.016-5.047c.375-.25.719-.109.438.141l-6.484 5.859-.25 3.563c.359 0 .516-.156.703-.344l1.687-1.625 3.5 2.578c.641.359 1.094.172 1.266-.594zM28 14c0 7.734-6.266 14-14 14S0 21.734 0 14 6.266 0 14 0s14 6.266 14 14z"/></symbol><symbol id="icon-instagram" viewBox="0 0 32 32"><path d="M16 2.881c4.275 0 4.781.019 6.462.094 1.563.069 2.406.331 2.969.55a4.952 4.952 0 0 1 1.837 1.194 5.015 5.015 0 0 1 1.2 1.838c.219.563.481 1.412.55 2.969.075 1.688.094 2.194.094 6.463s-.019 4.781-.094 6.463c-.069 1.563-.331 2.406-.55 2.969a4.94 4.94 0 0 1-1.194 1.837 5.02 5.02 0 0 1-1.837 1.2c-.563.219-1.413.481-2.969.55-1.688.075-2.194.094-6.463.094s-4.781-.019-6.463-.094c-1.563-.069-2.406-.331-2.969-.55a4.952 4.952 0 0 1-1.838-1.194 5.02 5.02 0 0 1-1.2-1.837c-.219-.563-.481-1.413-.55-2.969-.075-1.688-.094-2.194-.094-6.463s.019-4.781.094-6.463c.069-1.563.331-2.406.55-2.969a4.964 4.964 0 0 1 1.194-1.838 5.015 5.015 0 0 1 1.838-1.2c.563-.219 1.412-.481 2.969-.55 1.681-.075 2.188-.094 6.463-.094zM16 0c-4.344 0-4.887.019-6.594.094-1.7.075-2.869.35-3.881.744-1.056.412-1.95.956-2.837 1.85a7.833 7.833 0 0 0-1.85 2.831C.444 6.538.169 7.7.094 9.4.019 11.113 0 11.656 0 16s.019 4.887.094 6.594c.075 1.7.35 2.869.744 3.881.413 1.056.956 1.95 1.85 2.837a7.82 7.82 0 0 0 2.831 1.844c1.019.394 2.181.669 3.881.744 1.706.075 2.25.094 6.594.094s4.888-.019 6.594-.094c1.7-.075 2.869-.35 3.881-.744 1.05-.406 1.944-.956 2.831-1.844s1.438-1.781 1.844-2.831c.394-1.019.669-2.181.744-3.881.075-1.706.094-2.25.094-6.594s-.019-4.887-.094-6.594c-.075-1.7-.35-2.869-.744-3.881a7.506 7.506 0 0 0-1.831-2.844A7.82 7.82 0 0 0 26.482.843C25.463.449 24.301.174 22.601.099c-1.712-.081-2.256-.1-6.6-.1z"/><path d="M16 7.781c-4.537 0-8.219 3.681-8.219 8.219s3.681 8.219 8.219 8.219 8.219-3.681 8.219-8.219A8.221 8.221 0 0 0 16 7.781zm0 13.55a5.331 5.331 0 1 1 0-10.663 5.331 5.331 0 0 1 0 10.663zM26.462 7.456a1.919 1.919 0 1 1-3.838 0 1.919 1.919 0 0 1 3.838 0z"/></symbol><symbol id="icon-clipboard" viewBox="0 0 32 32"><path d="M7.903 7.023v1.993h14.014V7.023a.996.996 0 0 0-.996-.997h-2.99s.034-1.138.034-2.882c0-1.619-1.404-3.098-3.086-3.098s-2.978 1.406-2.978 3.089c0 1.619-.012 2.891-.012 2.891H8.9a.997.997 0 0 0-.997.997zm6.976-3.986a.997.997 0 1 1 0 1.994.997.997 0 0 1 0-1.994zm9.032 2.989v9.901s.86-.949 1.992-1.404V5.03c0-1.101-.955-1.993-2.055-1.993h-4.921V5.03h3.986c.551 0 .998.446.998.996zm-11.088 23.98H6.906a.995.995 0 0 1-.996-.996V6.026c0-.55.446-.996.996-.996h4.049V3.037H5.91A1.993 1.993 0 0 0 3.917 5.03v24.976c0 1.101.892 1.994 1.993 1.994h9.081c-.39-.658-1.087-1.418-2.168-1.994zm11.088-.996a.996.996 0 0 1-.997.996h-2.729A44.86 44.86 0 0 0 18.775 32h5.074c1.1 0 2.055-.893 2.055-1.994v-6.129a26.013 26.013 0 0 0-1.992 1.83v3.303zm4.172-8.084c-1.123-2.496-.48-4.523-.32-6.863-6.579 3.275-10.751 13.103-10.751 13.103l-2.567-4.836-5.295 3.119c2.247.779 5.456 3.275 8.184 6.551 1.924-3.432 7.861-10.449 10.749-11.074z"/></symbol><symbol id="icon-discout" viewBox="0 0 32 32"><path d="M31.062 16c0 2.125-1.227 3.927-3.05 4.642v2.33c0 .55-.446.996-.995.996H3.984a.995.995 0 0 1-.996-.996v-2.33C1.164 19.927-.062 18.125-.062 16s1.227-3.927 3.051-4.642v-2.33c0-.551.445-.996.996-.996h23.033c.549 0 .995.445.995.996v2.33c1.823.715 3.049 2.517 3.049 4.642zm-19.11 0H7.968v.996h3.984V16zm4.73-3.396c-.281-.309-.667-.463-1.157-.463-.487 0-.871.154-1.151.463-.281.308-.422.782-.422 1.422 0 .643.141 1.118.422 1.427.28.308.481.462.979.462.48 0 1.049-.154 1.33-.462.28-.309.421-.784.421-1.427-.001-.64-.142-1.115-.422-1.422zm3.388-.619-5.11 8.022h1.012l5.085-8.022h-.987zm1.591 4.602c-.28-.308-.667-.462-1.157-.462-.486 0-.871.154-1.152.462-.28.309-.42.782-.42 1.422 0 .643.14 1.119.42 1.427.281.309.67.463 1.168.463.48 0 .861-.154 1.142-.463.28-.308.421-.784.421-1.427-.001-.64-.142-1.113-.422-1.422zm-1.166 2.541a.385.385 0 0 1-.337-.181c-.107-.157-.161-.469-.161-.936s.054-.78.161-.94c.078-.117.19-.177.337-.177s.261.06.342.177c.104.16.156.474.156.94s-.054.78-.161.94a.38.38 0 0 1-.337.177zm-4.979-3.983a.384.384 0 0 1-.337-.182c-.107-.157-.161-.469-.161-.936s.054-.78.161-.94c.078-.117.19-.176.337-.176s.26.059.342.176c.104.16.156.474.156.94s-.054.78-.161.94a.382.382 0 0 1-.337.178z"/></symbol><symbol id="icon-truck" viewBox="0 0 32 32"><path d="M24.832 11.445A1.001 1.001 0 0 0 24 11h-1a1 1 0 0 0-1 1v6a1 1 0 0 0 1 1h4a1 1 0 0 0 1-1v-1.5c0-.197-.059-.391-.168-.555l-3-4.5zM27 18h-4v-6h1l3 4.5V18zm4.496-2.664-4-6A2.995 2.995 0 0 0 25 8h-4V6c0-1.654-1.346-3-3-3H3C1.346 3 0 4.346 0 6v11c0 1.654 1.346 3 3 3v3c0 1.654 1.346 3 3 3h1.142c.447 1.721 2 3 3.859 3 1.857 0 3.41-1.279 3.857-3h5.282c.447 1.721 2 3 3.859 3 1.857 0 3.41-1.279 3.857-3H29c1.654 0 3-1.346 3-3v-6c0-.594-.174-1.17-.504-1.664zM3 18a1 1 0 0 1-1-1V6a1 1 0 0 1 1-1h15a1 1 0 0 1 1 1v11a1 1 0 0 1-1 1H3zm8.001 9a2 2 0 1 1 0-4 2 2 0 0 1 0 4zM24 27a2 2 0 1 1 0-4 2 2 0 0 1 0 4zm6-4a1 1 0 0 1-1 1h-1.143c-.447-1.721-2-3-3.857-3-1.859 0-3.412 1.279-3.859 3h-5.282c-.447-1.721-2-3-3.857-3-1.859 0-3.412 1.279-3.859 3H6a1 1 0 0 1-1-1v-3h13c1.654 0 3-1.346 3-3v-7h4c.334 0 .646.167.832.445l4 6c.109.164.168.358.168.555v6z"/></symbol><symbol id="icon-handshake-o" viewBox="0 0 36 28"><path d="M3 18c1.313 0 1.313-2 0-2s-1.313 2 0 2zm23.016-.906c-1.234-1.609-2.438-3.25-3.844-4.719l-1.953 2.188c-1.719 1.953-4.797 1.906-6.469-.094a3.806 3.806 0 0 1 .031-4.922l2.766-3.219C15.578 5.828 14.406 6 13.36 6c-.922 0-1.813.375-2.469 1.031L8.422 9.5H6V18c.688 0 1.312-.094 1.859.438L12.5 23c.953.922 2.187 1.734 3.547 1.734.703 0 1.453-.234 1.953-.734 1.172.406 2.531-.25 2.891-1.453a2.51 2.51 0 0 0 1.984-.688c.359-.328.828-.984.781-1.5.141.141.484.156.672.156 1.859 0 2.828-1.953 1.687-3.422zM28.5 18H30v-8h-1.453l-2.453-2.812A3.543 3.543 0 0 0 23.453 6h-2.609c-.875 0-1.719.391-2.281 1.047l-3.266 3.797a1.82 1.82 0 0 0-.016 2.344c.891 1.062 2.531 1.078 3.453.047l3.016-3.406c.719-.797 2.031-.047 1.703.969.594.688 1.234 1.359 1.813 2.047.781.969 1.531 1.984 2.297 2.969.484.625.844 1.375.938 2.188zm4.5 0c1.313 0 1.313-2 0-2s-1.313 2 0 2zm3-9v10c0 .547-.453 1-1 1h-6.781c-.562 1.359-1.797 2.266-3.234 2.469-.672.984-1.703 1.734-2.859 1.984-.859 1.094-2.25 1.75-3.641 1.656-2.578 1.453-5.484.187-7.406-1.703L6.595 20H1.001c-.547 0-1-.453-1-1V8.5c0-.547.453-1 1-1h6.578C9.392 5.687 10.641 4 13.36 4h1.828c1.016 0 2 .313 2.828.875A5.044 5.044 0 0 1 20.844 4h2.609c2.969 0 4.203 1.937 6 4H35c.547 0 1 .453 1 1z"/></symbol>
<symbol id="icon-AnyConvcom__-" viewBox="0 0 60 32">
<path fill="#fff" style="fill: var(--color1, #fff)" d="M0 0v32h59.721v-32h-59.721z"></path>
<path fill="#76a9a0" style="fill: var(--color2, #76a9a0)" d="M1.302 0.93v14.14c0 1.142-0.514 4.063 0.372 4.837l-0.186-6.512v-12.279h11.907l-3.907-0.186h-8.186z"></path>
<path fill="#006958" style="fill: var(--color3, #006958)" d="M1.488 1.116v18.605l5.226-5.209 2.216-2.605c1.978 1.514 3.454 4.031 5.026 5.961 0.482 0.591 1.2 1.879 2.051 1.929 1.321 0.078 2.859-1.745 3.541-2.68 2.483-3.406 2.351-9.168-0.253-12.464-4.086-5.17-11.968-3.536-17.807-3.536z"></path>
<path fill="#8eb9b2" style="fill: var(--color4, #8eb9b2)" d="M13.891 1.178v0z"></path>
<path fill="#9cc5bf" style="fill: var(--color5, #9cc5bf)" d="M14.636 1.364v0z"></path>
<path fill="#64c1c8" style="fill: var(--color6, #64c1c8)" d="M17.674 1.488c3.231 3.995 6.576 7.875 9.882 11.9 0.703 0.856 2.983 4.062 4.067 4.062 0.774 0 1.68-1.477 2.127-2.008 0.617-0.732 2.257-2.028 2.381-2.996 0.099-0.77-1.636-2.304-2.171-2.773-1.298-1.136-1.65 1.372-2.837 0.521-2.16-1.549-3.884-4.326-5.667-6.294-0.646-0.713-1.497-1.947-2.419-2.302-1.45-0.558-3.814-0.11-5.363-0.11z"></path>
<path fill="#428073" style="fill: var(--color7, #428073)" d="M27.907 1.488l0.186 0.558c1.563-0.869 4.198-0.372 5.954-0.372l-6.14-0.186z"></path>
<path fill="#64c1c6" style="fill: var(--color8, #64c1c6)" d="M37.581 4.279l2.961 2.784 1.583-1.296 3.456-4.279c-3.249 0-6.426-0.741-8 2.791z"></path>
<path fill="#407e73" style="fill: var(--color9, #407e73)" d="M50.605 1.488v0.186c1.496 0 4.368-0.547 5.581 0.372 0.252-0.668-0.642-0.557-1.116-0.558h-4.465z"></path>
<path fill="#abbebc" style="fill: var(--color10, #abbebc)" d="M56.372 1.488v0.372l0.372-0.372h-0.372z"></path>
<path fill="#036858" style="fill: var(--color11, #036858)" d="M28.279 1.674l3.642 4.465 10.311 11.535h0.558l9.596-11.163 3.8-4.837-5.547 0.105-2.327 2.345-5.708 6.852-5.667-6.342-2.891-2.848-5.767-0.112z"></path>
<path fill="#73a79b" style="fill: var(--color12, #73a79b)" d="M56 2.046v0z"></path>
<path fill="#82b4ab" style="fill: var(--color13, #82b4ab)" d="M48.744 3.535v0z"></path>
<path fill="#8cbbb5" style="fill: var(--color14, #8cbbb5)" d="M21.085 8.682v0z"></path>
<path fill="#b6dbd4" style="fill: var(--color15, #b6dbd4)" d="M49.674 9.674v0z"></path>
<path fill="#a1cac4" style="fill: var(--color16, #a1cac4)" d="M21.209 9.488v0.558h0.186l-0.186-0.558z"></path>
<path fill="#56857d" style="fill: var(--color17, #56857d)" d="M21.209 10.046v2.605h0.186l-0.186-2.605z"></path>
<path fill="#dffcf8" style="fill: var(--color18, #dffcf8)" d="M7.256 13.767l-5.581 6.14 0.744 0.186c0.372-2.394 4.901-3.801 4.837-6.326z"></path>
<path fill="#7fadaa" style="fill: var(--color19, #7fadaa)" d="M20.899 14.078v0z"></path>
<path fill="#94c0bf" style="fill: var(--color20, #94c0bf)" d="M20.527 15.194v0z"></path>
<path fill="#7bb0a6" style="fill: var(--color21, #7bb0a6)" d="M2.046 19.163v0z"></path>
<path fill="#868686" style="fill: var(--color22, #868686)" d="M35.562 22.484c-0.908 0.299-0.381 1.701 0.507 1.393 0.921-0.319 0.416-1.697-0.507-1.393z"></path>
<path fill="#b0b0b0" style="fill: var(--color23, #b0b0b0)" d="M37.581 22.512v6.698h0.186v-6.512h1.302l-1.488-0.186z"></path>
<path fill="#c9c9c9" style="fill: var(--color24, #c9c9c9)" d="M12.651 22.698v0.186h1.302l-1.302-0.186z"></path>
<path fill="#878787" style="fill: var(--color25, #878787)" d="M37.767 22.698v6.512h1.302v-6.512h-1.302z"></path>
<path fill="#a6a6a6" style="fill: var(--color26, #a6a6a6)" d="M12.465 22.884v6.326h0.186l-0.186-6.326z"></path>
<path fill="#868686" style="fill: var(--color22, #868686)" d="M12.651 22.884v6.326h1.116v-6.326h-1.116z"></path>
<path fill="#9f9f9f" style="fill: var(--color27, #9f9f9f)" d="M13.767 22.884v6.326h0.186l-0.186-6.326z"></path>
<path fill="#dadada" style="fill: var(--color28, #dadada)" d="M1.488 23.070v0.186h2.605l-2.605-0.186z"></path>
<path fill="#ccc" style="fill: var(--color29, #ccc)" d="M1.302 23.256v5.767h0.186l-0.186-5.767z"></path>
<path fill="#878787" style="fill: var(--color25, #878787)" d="M1.488 23.256v5.767c1.069 0 2.539 0.26 3.534-0.174 1.817-0.794 2.313-3.662 0.725-4.916-1.189-0.939-2.845-0.677-4.26-0.677zM15.070 23.256l-0.372 2.233h0.558c0 2.503-0.234 3.721 2.605 3.721v-1.116c-1.629 0.182-1.302-1.423-1.302-2.605h1.302v-0.93h-1.302v-1.302h-1.488z"></path>
<path fill="#868686" style="fill: var(--color22, #868686)" d="M25.116 23.256l1.488 5.954h2.233l1.116-3.721 0.744 3.721h2.233l1.488-5.953h-1.86l-0.744 3.535h-0.186l-0.93-3.535h-1.86l-0.744 3.535h-0.372c-0.045-2.099-0.383-3.535-2.605-3.535z"></path>
<path fill="#ccc" style="fill: var(--color29, #ccc)" d="M35.349 24v0.186h0.93l-0.93-0.186z"></path>
<path fill="#b9b9b9" style="fill: var(--color30, #b9b9b9)" d="M2.791 24.372v3.721h1.302v-0.186h-1.116l-0.186-3.535z"></path>
<path fill="#fdfdfd" style="fill: var(--color31, #fdfdfd)" d="M2.977 24.372v3.535c2.823-0.060 2.823-3.474 0-3.535z"></path>
<path fill="#b7b7b7" style="fill: var(--color32, #b7b7b7)" d="M8.93 24.372v0.186h1.488l-1.488-0.186z"></path>
<path fill="#bdbdbd" style="fill: var(--color33, #bdbdbd)" d="M19.349 24.372v0.186h1.674l-1.674-0.186z"></path>
<path fill="#bebebe" style="fill: var(--color34, #bebebe)" d="M42.419 24.372v0.186h0.93l-0.93-0.186z"></path>
<path fill="#c0c0c0" style="fill: var(--color35, #c0c0c0)" d="M45.209 24.372v0.186h0.93l-0.93-0.186z"></path>
<path fill="#bebebe" style="fill: var(--color34, #bebebe)" d="M49.116 24.372v0.186h1.488l-1.488-0.186z"></path>
<path fill="#878787" style="fill: var(--color25, #878787)" d="M11.349 27.907c-1.193 0.378-2.171 0.543-2.791-0.744h3.163c-0.001-0.868 0.048-1.751-0.755-2.306-1.256-0.868-3.508-0.232-3.69 1.379-0.105 0.935-0.006 2.025 0.811 2.628 1.165 0.86 2.999 0.478 3.262-0.957z"></path>
<path fill="#adadad" style="fill: var(--color36, #adadad)" d="M14.512 24.558v1.116h0.558v2.605h0.186v-2.791h-0.558l-0.186-0.93z"></path>
<path fill="#c3c3c3" style="fill: var(--color37, #c3c3c3)" d="M17.86 24.558v0.93h0.186l-0.186-0.93z"></path>
<path fill="#878787" style="fill: var(--color25, #878787)" d="M18.977 25.488c0.867 0.001 1.59-0.084 2.046 0.744-0.789 0.001-1.73-0.084-2.359 0.494-1.532 1.404 0.686 3.127 2.173 2.111h0.186l1.488 0.372c0-1.086 0.396-3.151-0.298-4.051-0.746-0.966-2.957-0.951-3.237 0.33z"></path>
<path fill="#dadada" style="fill: var(--color28, #dadada)" d="M34.977 24.558v4.651h0.186l-0.186-4.651z"></path>
<path fill="#878787" style="fill: var(--color25, #878787)" d="M35.163 24.558v4.651h1.302v-4.651h-1.302z"></path>
<path fill="#cacaca" style="fill: var(--color38, #cacaca)" d="M36.465 24.558v4.651h0.186l-0.186-4.651z"></path>
<path fill="#9b9b9b" style="fill: var(--color39, #9b9b9b)" d="M40.186 24.558v4.651h1.488v-3.535h-0.186v3.349h-1.116v-4.279l1.116 0.372c0.271-0.72-0.824-0.558-1.302-0.558z"></path>
<path fill="#878787" style="fill: var(--color25, #878787)" d="M41.488 25.116l-1.116-0.372v4.279h1.116c0-0.607-0.327-4.155 1.058-3.502 0.835 0.393 0.43 2.916 0.43 3.688h1.302c0-2.1 0.388-5.841-2.791-4.093z"></path>
<path fill="#bbb" style="fill: var(--color40, #bbb)" d="M43.721 24.558v0z"></path>
<path fill="#878787" style="fill: var(--color25, #878787)" d="M44.651 25.302c1.662 0.265 1.116 2.62 1.116 3.907 3.001-0.099 0.893-6.846-1.116-3.907z"></path>
<path fill="#888" style="fill: var(--color41, #888)" d="M48.558 25.674c0.928-0.218 1.58-0.181 2.233 0.558-0.804 0.001-1.728-0.082-2.391 0.468-2.006 1.663 0.902 2.768 2.391 2.137l1.302 0.372c0-1.142 0.366-3.060-0.245-4.066-0.724-1.191-3.023-0.751-3.29 0.531z"></path>
<path fill="#a4a4a4" style="fill: var(--color42, #a4a4a4)" d="M53.209 24.558c0 1.12-0.497 3.892 0.372 4.651l-0.186-4.465h1.302l-1.488-0.186z"></path>
<path fill="#868686" style="fill: var(--color22, #868686)" d="M54.698 25.302c-0.148-0.691-0.677-0.558-1.302-0.558 0 1.489-0.707 4.399 1.302 4.465 0-1.553-0.548-3.894 1.674-3.535v-1.116l-1.674 0.744z"></path>
<path fill="#bbb" style="fill: var(--color40, #bbb)" d="M44.651 24.744l-0.558 0.558 0.186 3.907h0.186c0-1.565-0.161-3.035 0.558-4.465h-0.372z"></path>
<path fill="#d3d3d3" style="fill: var(--color43, #d3d3d3)" d="M8.744 25.86l1.116-0.372c-0.536-0.204-0.809-0.103-1.116 0.372z"></path>
<path fill="#bbb" style="fill: var(--color40, #bbb)" d="M18.791 25.302l0.558 0.372v-0.186l-0.558-0.186z"></path>
<path fill="#fefefe" style="fill: var(--color44, #fefefe)" d="M8.558 26.233h1.674v-0.744c-0.739 0.022-1.264 0.095-1.674 0.744z"></path>
<path fill="#c1c1c1" style="fill: var(--color45, #c1c1c1)" d="M16.558 25.488v0.186h1.302l-1.302-0.186z"></path>
<path fill="#c8c8c8" style="fill: var(--color46, #c8c8c8)" d="M20.589 25.55v0z"></path>
<path fill="#c7c7c7" style="fill: var(--color47, #c7c7c7)" d="M29.581 25.488v0.558h0.372v-0.558h-0.372z"></path>
<path fill="#ddd" style="fill: var(--color48, #ddd)" d="M42.791 25.488v3.721h0.186l-0.186-3.721z"></path>
<path fill="#d3d3d3" style="fill: var(--color43, #d3d3d3)" d="M45.581 25.488v3.721h0.186l-0.186-3.721z"></path>
<path fill="#cacaca" style="fill: var(--color38, #cacaca)" d="M47.070 25.488l-0.186 3.721c0.7-0.611 0.529-2.903 0.186-3.721z"></path>
<path fill="#bdbdbd" style="fill: var(--color33, #bdbdbd)" d="M52.093 25.488v3.721h0.186l-0.186-3.721z"></path>
<path fill="#acacac" style="fill: var(--color49, #acacac)" d="M8.558 26.233v0.186h1.674l-1.674-0.186z"></path>
<path fill="#ccc" style="fill: var(--color29, #ccc)" d="M27.721 26.419v0.372h0.372v-0.372h-0.372z"></path>
<path fill="#cdcdcd" style="fill: var(--color50, #cdcdcd)" d="M7.070 26.605v0.93h0.186l-0.186-0.93z"></path>
<path fill="#c3c3c3" style="fill: var(--color37, #c3c3c3)" d="M29.271 26.915v0z"></path>
<path fill="#fefefe" style="fill: var(--color44, #fefefe)" d="M19.721 28.279c0.968-0.054 1.27-0.331 1.302-1.302-0.883 0.070-1.185 0.436-1.302 1.302z"></path>
<path fill="#c5c5c5" style="fill: var(--color51, #c5c5c5)" d="M49.86 26.977v0.186h0.93l-0.93-0.186z"></path>
<path fill="#b9b9b9" style="fill: var(--color30, #b9b9b9)" d="M19.721 27.163l-0.186 0.93h0.186l0.372-0.93h-0.372z"></path>
<path fill="#fcfcfc" style="fill: var(--color52, #fcfcfc)" d="M50.791 27.163c-2.626 0.031-0.164 2.063 0 0z"></path>
<path fill="#c5c5c5" style="fill: var(--color51, #c5c5c5)" d="M30.326 27.535v0.558h0.186l-0.186-0.558z"></path>
<path fill="#c6c6c6" style="fill: var(--color53, #c6c6c6)" d="M4.217 27.783v0z"></path>
<path fill="#c9c9c9" style="fill: var(--color24, #c9c9c9)" d="M8.93 27.907v0z"></path>
<path fill="#cacaca" style="fill: var(--color38, #cacaca)" d="M17.86 28.279v0.93h0.186l-0.186-0.93z"></path>
<path fill="#cbcbcb" style="fill: var(--color54, #cbcbcb)" d="M30.574 28.403v0z"></path>
<path fill="#c7c7c7" style="fill: var(--color47, #c7c7c7)" d="M1.488 29.023v0.186h2.605l-2.605-0.186zM8.93 29.209v0.186h1.86l-1.86-0.186z"></path>
<path fill="#c1c1c1" style="fill: var(--color45, #c1c1c1)" d="M19.349 29.209v0.186h0.744l-0.744-0.186z"></path>
<path fill="#bcbcbc" style="fill: var(--color55, #bcbcbc)" d="M48.744 29.209v0.186h1.116l-1.116-0.186z"></path>
</symbol>
<symbol id="icon-enzym" viewBox="0 0 69 32">
<path fill="#fff" style="fill: var(--color1, #fff)" d="M0 0v32h68.889v-32h-68.889z"></path>
<path fill="#9deaca" style="fill: var(--color2, #9deaca)" d="M8 4v0.222l1.333-0.444-1.333 0.222z"></path>
<path fill="#5cc29a" style="fill: var(--color3, #5cc29a)" d="M9.333 3.556v0.222h1.556l-1.556-0.222z"></path>
<path fill="#0cb977" style="fill: var(--color4, #0cb977)" d="M4.444 12.444c1.333-0.674 0.383-4.919 2.889-3.579 0.542 0.29 0.991 0.661 1.556 0.913v0.667c-2.079 0.97-4.285 3.567-5.744 5.333-0.427 0.517-0.824 2.024 0.415 1.701 1.619-0.423 3.496-3.206 4.662-4.368 0.444-0.442 1.080-1.321 1.778-1.321s1.334 0.879 1.778 1.321c1.166 1.162 3.044 3.945 4.662 4.368 1.193 0.312 0.88-1.119 0.435-1.637-1.539-1.792-3.617-4.396-5.764-5.397v-0.667c0.604-0.286 1.030-0.815 1.619-1.096 2.568-1.223 1.638 3.162 2.825 3.763 0.853-1.311 1.434-3.258 0.098-4.522-0.58-0.549-1.419-0.55-2.028-1.018-1.347-1.037-0.934-2.889-3.182-3.102-2.617-0.248-2.239 1.421-3.652 2.74-0.565 0.527-1.437 0.549-2.053 1.013-1.675 1.26-1.252 3.368-0.295 4.89z"></path>
<path fill="#8bdfbe" style="fill: var(--color5, #8bdfbe)" d="M9.333 5.111v0.222h1.333l-1.333-0.222z"></path>
<path fill="#40b281" style="fill: var(--color6, #40b281)" d="M7.111 5.333l-0.222 1.333h0.222v-1.333z"></path>
<path fill="#cfe" style="fill: var(--color7, #cfe)" d="M10.444 8.667c-1.11-0.936-2.063-1.944-0.667-3.111-1.964-0.401-1.352 3.141 0.667 3.111z"></path>
<path fill="#fffbff" style="fill: var(--color8, #fffbff)" d="M9.791 5.503c-1.418 0.527-0.814 3.147 0.653 2.776 1.686-0.427 1.175-3.455-0.653-2.776z"></path>
<path fill="#8fe2c4" style="fill: var(--color9, #8fe2c4)" d="M13.333 6.889v0.222h0.889l-0.889-0.222z"></path>
<path fill="#7fdeb6" style="fill: var(--color10, #7fdeb6)" d="M6 8.444v0.222h1.111l-1.111-0.222z"></path>
<path fill="#82dcb8" style="fill: var(--color11, #82dcb8)" d="M12.444 8.444v0.222h1.333l-1.333-0.222z"></path>
<path fill="#d0ffee" style="fill: var(--color12, #d0ffee)" d="M16.667 15.556l-3.111-4c-2.395-0.672-1.18-2.681 0.889-2.444-0.933-0.707-3.406-0.278-2.85 1.333 0.552 1.599 3.622 4.281 5.072 5.111z"></path>
<path fill="#7b7b7b" style="fill: var(--color13, #7b7b7b)" d="M24.444 9.111v0.222h1.778l-1.778-0.222z"></path>
<path fill="#a9a9a9" style="fill: var(--color14, #a9a9a9)" d="M32.593 9.185v0z"></path>
<path fill="#808080" style="fill: var(--color15, #808080)" d="M32.889 9.111v0.222h1.111l-1.111-0.222z"></path>
<path fill="#b8b8b8" style="fill: var(--color16, #b8b8b8)" d="M57.037 9.185v0z"></path>
<path fill="#7f7f7f" style="fill: var(--color17, #7f7f7f)" d="M57.333 9.111v0.222h1.333l-1.333-0.222zM62.222 9.111v0.222h1.333l-1.333-0.222z"></path>
<path fill="#5dc19b" style="fill: var(--color18, #5dc19b)" d="M14.889 9.333v1.111h0.222l-0.222-1.111z"></path>
<path fill="#595959" style="fill: var(--color19, #595959)" d="M28.222 18.444l-0.222-1.556c-1.97 0.562-3.716 1.057-4.222-1.556 1.46 0 3.1 0.127 4.126-1.135 2.154-2.648-1.047-5.806-3.903-4.7-2.411 0.934-2.506 6.525-1.024 8.256 1.375 1.607 3.463 1.162 5.246 0.69z"></path>
<path fill="#555" style="fill: var(--color20, #555)" d="M30.222 18.444h1.333c0-1.639-0.888-7.676 1.781-7.676 2.73 0 1.775 5.963 1.775 7.676h1.333c0-2.1 0.732-5.895-0.262-7.768-1.096-2.066-4.651-1.731-5.636 0.213-0.984 1.94-0.324 5.412-0.324 7.555z"></path>
<path fill="#c0c0c0" style="fill: var(--color21, #c0c0c0)" d="M38.222 9.333v1.556h0.222v-1.333h6.222l-6.444-0.222z"></path>
<path fill="#d6d6d6" style="fill: var(--color22, #d6d6d6)" d="M46.222 9.333v6.889h0.222v-6.667h1.556v6.444h0.222v-6.667h-2z"></path>
<path fill="#bebebe" style="fill: var(--color23, #bebebe)" d="M51.333 9.333v0.222h1.556l-1.556-0.222z"></path>
<path fill="#575759" style="fill: var(--color24, #575759)" d="M54.889 18.444h1.333c0-1.717-0.956-7.676 1.778-7.676 2.689 0 1.778 5.999 1.778 7.676h1.333c0-1.915-0.413-4.373 0.096-6.222 0.303-1.1 1.489-1.927 2.537-1.168 1.525 1.104 0.7 5.891 0.7 7.613h1.556c0-2.186 0.792-6.326-0.446-8.199-1.277-1.932-3.236-0.775-4.925-0.589-1.333 0.148-2.494-0.891-3.954-0.432-2.879 0.905-1.786 6.698-1.786 8.997z"></path>
<path fill="#575757" style="fill: var(--color25, #575757)" d="M38.444 9.556v1.333h4.222c-1.25 2.513-3.973 4.613-4 7.556h6v-1.111h-4.444c1.513-2.298 4.411-4.905 4.444-7.778h-6.222z"></path>
<path fill="#595959" style="fill: var(--color19, #595959)" d="M46.444 9.556c0 3.443-0.918 11.127 4.889 8.667-0.025 1.182-0.42 3.069-2 2.991-1.133-0.056-1.478-0.858-2.667-0.324 0.912 2.462 4.74 2.294 5.784-0.001 1.377-3.027 0.438-8.050 0.438-11.332h-1.556c0 1.593 0.922 7.845-1.777 7.656-2.446-0.171-1.556-6.046-1.556-7.656h-1.556z"></path>
<path fill="#d9d9d9" style="fill: var(--color26, #d9d9d9)" d="M51.111 9.556v6.667h0.222l-0.222-6.667z"></path>
<path fill="#e1e1e1" style="fill: var(--color27, #e1e1e1)" d="M52.889 9.556v10.222h0.222c0-2.89 0.891-7.569-0.222-10.222z"></path>
<path fill="#6edbb2" style="fill: var(--color28, #6edbb2)" d="M8.667 9.778v0.667h0.222l-0.222-0.667z"></path>
<path fill="#59d5a3" style="fill: var(--color29, #59d5a3)" d="M11.111 9.778v0.667h0.222l-0.222-0.667z"></path>
<path fill="#fdfdfd" style="fill: var(--color30, #fdfdfd)" d="M23.778 13.778c0.581 0 1.202 0.058 1.777-0.033 3.818-0.604-0.958-5.275-1.715-1.741-0.122 0.569-0.062 1.196-0.062 1.774z"></path>
<path fill="#9c9c9c" style="fill: var(--color31, #9c9c9c)" d="M25.926 10.741v0z"></path>
<path fill="#8ddcbc" style="fill: var(--color32, #8ddcbc)" d="M3.63 11.037v0z"></path>
<path fill="#cfe" style="fill: var(--color7, #cfe)" d="M3.556 17.778l6.667-6 5.556 6.222h1.111l-4.889-4.889-2-1.51-2 1.51-4.444 4.667z"></path>
<path fill="#8a8a8a" style="fill: var(--color33, #8a8a8a)" d="M28.444 11.333v1.556h0.222l-0.222-1.556z"></path>
<path fill="#868686" style="fill: var(--color34, #868686)" d="M36.444 11.333c0 1.874 0.704 5.595-0.444 7.111v0.222c1.118-0.24 1.024-6.328 0.444-7.333z"></path>
<path fill="#aeaeae" style="fill: var(--color35, #aeaeae)" d="M59.407 11.482v0z"></path>
<path fill="#a3a3a3" style="fill: var(--color36, #a3a3a3)" d="M64.296 11.482v0z"></path>
<path fill="#a5e6d0" style="fill: var(--color37, #a5e6d0)" d="M16 11.556v0z"></path>
<path fill="#c2c2c2" style="fill: var(--color38, #c2c2c2)" d="M22 11.556v4.667h0.222l-0.222-4.667z"></path>
<path fill="#7c7c7c" style="fill: var(--color39, #7c7c7c)" d="M54.667 11.556v7.111h1.556v-0.222h-1.333l-0.222-6.889z"></path>
<path fill="#b9b9b9" style="fill: var(--color40, #b9b9b9)" d="M30 11.778v6.889h0.222l-0.222-6.889z"></path>
<path fill="#acacac" style="fill: var(--color41, #acacac)" d="M34.889 11.778v6.889h1.111v-0.222h-0.889l-0.222-6.667z"></path>
<path fill="#b4b4b4" style="fill: var(--color42, #b4b4b4)" d="M56.222 11.778v6.889h0.222l-0.222-6.889z"></path>
<path fill="#bababa" style="fill: var(--color43, #bababa)" d="M61.111 11.778v6.889h0.222l-0.222-6.889z"></path>
<path fill="#d0d0d0" style="fill: var(--color44, #d0d0d0)" d="M66 12v6.667h0.222l-0.222-6.667z"></path>
<path fill="#757575" style="fill: var(--color45, #757575)" d="M31.556 12.222v6.222h-1.333v0.222h1.556l-0.222-6.444z"></path>
<path fill="#6e6e6e" style="fill: var(--color46, #6e6e6e)" d="M59.556 12.222v6.444h1.556v-0.222h-1.333l-0.222-6.222z"></path>
<path fill="#87c7af" style="fill: var(--color47, #87c7af)" d="M9.926 13.407v0z"></path>
<path fill="#02bc73" style="fill: var(--color48, #02bc73)" d="M9.575 13.81c-1.105 0.417-4.9 4.078-4.681 5.302 0.197 1.103 4.645 4.973 5.773 4.609 1.121-0.362 4.548-3.599 4.44-4.832-0.089-1.021-1.26-1.85-1.931-2.499-0.752-0.727-2.376-3.041-3.601-2.579z"></path>
<path fill="#d3d3d3" style="fill: var(--color49, #d3d3d3)" d="M23.778 13.778v0.222h2l-2-0.222z"></path>
<path fill="#d6d6d6" style="fill: var(--color22, #d6d6d6)" d="M23.778 15.333v0.889h0.222v-0.667h1.778l-2-0.222z"></path>
<path fill="#8d8d8d" style="fill: var(--color50, #8d8d8d)" d="M46.444 16v0.667h0.222l-0.222-0.667z"></path>
<path fill="#89c2af" style="fill: var(--color51, #89c2af)" d="M17.556 16.444v0.667h0.222l-0.222-0.667z"></path>
<path fill="#8e8e8e" style="fill: var(--color52, #8e8e8e)" d="M40.222 16.889c0.803 0.919 3.278 0.444 4.444 0.444v1.111h-6v0.222h6.222v-1.556l-4.667-0.222z"></path>
<path fill="#c2c2c2" style="fill: var(--color38, #c2c2c2)" d="M24.593 17.185v0z"></path>
<path fill="#aeaeae" style="fill: var(--color35, #aeaeae)" d="M38.444 17.111v1.333h0.222l-0.222-1.333z"></path>
<path fill="#cfcfcf" style="fill: var(--color53, #cfcfcf)" d="M24.889 17.333v0.222h1.778l-1.778-0.222z"></path>
<path fill="#8d8d8d" style="fill: var(--color50, #8d8d8d)" d="M28.296 17.926v0z"></path>
<path fill="#d6d6d6" style="fill: var(--color22, #d6d6d6)" d="M50.889 18.222l0.222 1.556h0.222l-0.444-1.556z"></path>
<path fill="#64a28d" style="fill: var(--color54, #64a28d)" d="M15.111 18.444v0z"></path>
<path fill="#82c0ab" style="fill: var(--color55, #82c0ab)" d="M4.444 18.667v0z"></path>
<path fill="#979797" style="fill: var(--color56, #979797)" d="M48.889 18.667v0.222h1.111l-1.111-0.222z"></path>
<path fill="#d2d2d2" style="fill: var(--color57, #d2d2d2)" d="M24.889 18.889v0.222h1.556l-1.556-0.222z"></path>
<path fill="#cbfff0" style="fill: var(--color58, #cbfff0)" d="M15.111 19.333l-4.889 5.111c1.361-0.635 4.922-3.54 4.889-5.111z"></path>
<path fill="#9a9a9a" style="fill: var(--color59, #9a9a9a)" d="M52.741 19.926v0z"></path>
<path fill="#cdfff1" style="fill: var(--color60, #cdfff1)" d="M5.556 20.222c0.713 1.631 2.161 3.035 3.778 3.778l-3.778-3.778z"></path>
<path fill="#b1b1b1" style="fill: var(--color61, #b1b1b1)" d="M47.704 20.296v0z"></path>
<path fill="#34a97d" style="fill: var(--color62, #34a97d)" d="M6.889 21.333l2.667 3.111 0.889-0.222v-0.222l-3.556-2.667z"></path>
</symbol></defs></svg>